<svg width="619" height="621" viewBox="0 0 619 621" fill="none" xmlns="http://www.w3.org/2000/svg">
<g filter="url(#filter0_di_57_225)">
<path d="M394.796 58H225.898C132.618 58 57 133.588 57 226.83V395.66C57 488.902 132.618 564.49 225.898 564.49H394.796C488.076 564.49 563.694 488.902 563.694 395.66V226.83C563.694 133.588 488.076 58 394.796 58Z" fill="url(#paint0_linear_57_225)"/>
<path fill-rule="evenodd" clip-rule="evenodd" d="M336.757 194.032L314.4 219.87L344.683 254.887H207.647L207.572 254.886V254.871C207.572 254.871 205.493 259.391 202.458 272.662C199.423 285.933 199.332 291.363 199.332 291.363H207.628H389.28V291.404H421.028L389.363 254.984V254.895H389.376L336.757 194.032Z" fill="url(#paint1_linear_57_225)"/>
<path fill-rule="evenodd" clip-rule="evenodd" d="M283.602 408.922L305.96 383.083L275.677 348.067H412.713H412.787V348.081C412.787 348.081 414.866 343.563 417.902 330.292C420.937 317.021 421.028 311.59 421.028 311.59H412.732H231.079V311.549H199.332L230.996 347.969V348.06H230.983L283.602 408.922Z" fill="url(#paint2_linear_57_225)"/>
<path d="M394.797 68.5518H225.899C138.449 68.5518 67.5571 139.415 67.5571 226.83V395.66C67.5571 483.074 138.449 553.938 225.899 553.938H394.797C482.247 553.938 553.139 483.074 553.139 395.66V226.83C553.139 139.415 482.247 68.5518 394.797 68.5518Z" stroke="url(#paint3_linear_57_225)" stroke-width="2"/>
</g>
<defs>
<filter id="filter0_di_57_225" x="9" y="18" width="602.694" height="602.49" filterUnits="userSpaceOnUse" color-interpolation-filters="sRGB">
<feFlood flood-opacity="0" result="BackgroundImageFix"/>
<feColorMatrix in="SourceAlpha" type="matrix" values="0 0 0 0 0 0 0 0 0 0 0 0 0 0 0 0 0 0 127 0" result="hardAlpha"/>
<feOffset dy="8"/>
<feGaussianBlur stdDeviation="24"/>
<feComposite in2="hardAlpha" operator="out"/>
<feColorMatrix type="matrix" values="0 0 0 0 0.229785 0 0 0 0 0.170069 0 0 0 0 0.658333 0 0 0 0.18 0"/>
<feBlend mode="normal" in2="BackgroundImageFix" result="effect1_dropShadow_57_225"/>
<feBlend mode="normal" in="SourceGraphic" in2="effect1_dropShadow_57_225" result="shape"/>
<feColorMatrix in="SourceAlpha" type="matrix" values="0 0 0 0 0 0 0 0 0 0 0 0 0 0 0 0 0 0 127 0" result="hardAlpha"/>
<feOffset dy="4"/>
<feGaussianBlur stdDeviation="4"/>
<feComposite in2="hardAlpha" operator="arithmetic" k2="-1" k3="1"/>
<feColorMatrix type="matrix" values="0 0 0 0 0.32264 0 0 0 0 0.271215 0 0 0 0 0.608333 0 0 0 0.08 0"/>
<feBlend mode="normal" in2="shape" result="effect2_innerShadow_57_225"/>
</filter>
<linearGradient id="paint0_linear_57_225" x1="389.518" y1="159.298" x2="12.853" y2="640.611" gradientUnits="userSpaceOnUse">
<stop stop-color="#3E0D77"/>
<stop offset="1" stop-color="#230D39"/>
</linearGradient>
<linearGradient id="paint1_linear_57_225" x1="310.18" y1="194.032" x2="310.18" y2="291.404" gradientUnits="userSpaceOnUse">
<stop stop-color="#F2F2F2"/>
<stop offset="1" stop-color="#8C8C8C"/>
</linearGradient>
<linearGradient id="paint2_linear_57_225" x1="310.18" y1="311.549" x2="310.18" y2="408.922" gradientUnits="userSpaceOnUse">
<stop stop-color="#F2F2F2"/>
<stop offset="1" stop-color="#8C8C8C"/>
</linearGradient>
<linearGradient id="paint3_linear_57_225" x1="310.348" y1="57.9999" x2="310.348" y2="564.489" gradientUnits="userSpaceOnUse">
<stop offset="0.359" stop-color="#5443BC"/>
<stop offset="0.698" stop-color="#9A90DF"/>
<stop offset="1" stop-color="#5443BC"/>
</linearGradient>
</defs>
</svg>
